<?xml version="1.0" standalone="no"?>
<!DOCTYPE svg PUBLIC "-//W3C//DTD SVG 20010904//EN"
 "http://www.w3.org/TR/2001/REC-SVG-20010904/DTD/svg10.dtd">
<svg version="1.0" xmlns="http://www.w3.org/2000/svg"
 width="1268.000000pt" height="1268.000000pt" viewBox="0 0 1268.000000 1268.000000"
 preserveAspectRatio="xMidYMid meet">

<g transform="translate(0.000000,1268.000000) scale(0.100000,-0.100000)"
fill="#000000" stroke="none">
<path d="M5970 8467 l-304 -307 44 -44 c25 -24 135 -130 245 -237 413 -401
645 -655 706 -776 32 -62 34 -73 34 -162 0 -64 -6 -108 -16 -131 l-15 -35
-608 600 c-334 330 -613 601 -620 603 -17 4 -165 -148 -235 -241 -111 -149
-190 -330 -232 -530 -30 -143 -30 -370 0 -514 58 -281 208 -542 417 -727 l51
-46 80 93 c43 50 82 97 86 103 4 7 -28 47 -74 93 -269 273 -366 648 -263 1010
24 86 116 283 154 331 l19 25 523 -522 523 -523 -105 -105 -105 -105 -359 367
c-198 203 -363 369 -366 371 -11 4 -20 -65 -20 -151 0 -166 53 -318 162 -461
73 -97 330 -360 468 -477 l114 -99 214 220 214 220 194 -186 194 -186 55 42
c414 319 546 921 326 1485 -37 96 -105 215 -177 310 -54 72 -190 215 -204 215
-5 0 -48 -34 -97 -76 -143 -124 -135 -102 -64 -181 180 -202 276 -399 312
-643 17 -118 7 -343 -21 -445 -33 -125 -102 -295 -119 -295 -4 0 -51 44 -105
99 l-98 98 27 53 c42 84 65 190 65 306 0 183 -39 311 -137 449 -88 124 -390
437 -671 696 l-102 94 102 102 103 103 219 -185 c121 -102 223 -188 228 -191
7 -5 81 57 211 176 18 16 13 22 -99 121 -65 57 -219 194 -343 304 l-226 200
-305 -308z"/>
<path d="M1920 5171 l0 -331 60 0 60 0 2 206 3 206 160 -124 c88 -68 208 -161
268 -206 l107 -83 0 330 0 331 -60 0 -60 0 -2 -205 -3 -205 -255 196 c-140
108 -261 201 -267 206 -10 8 -13 -57 -13 -321z"/>
<path d="M2865 5483 c-231 -95 -289 -393 -107 -554 72 -64 122 -82 222 -83 74
-1 93 3 142 27 72 35 140 110 168 185 28 74 24 184 -10 255 -30 63 -93 127
-155 157 -65 32 -199 39 -260 13z m204 -122 c121 -62 159 -216 77 -315 -46
-57 -96 -81 -166 -80 -184 2 -277 214 -152 348 60 64 167 84 241 47z"/>
<path d="M3508 5175 c91 -179 168 -325 172 -325 6 0 330 632 330 643 0 4 -29
7 -65 7 l-64 0 -96 -190 c-53 -104 -100 -190 -105 -190 -6 0 -53 86 -105 190
l-95 190 -69 0 -68 0 165 -325z"/>
<path d="M4107 5378 c-36 -68 -112 -216 -169 -330 l-105 -208 69 0 68 0 97
195 c54 107 100 195 103 195 3 0 50 -88 105 -195 l100 -195 68 0 69 0 -168
328 c-91 180 -168 328 -169 330 -2 2 -32 -52 -68 -120z"/>
<path d="M5125 5486 c-66 -29 -114 -121 -100 -195 10 -55 51 -110 98 -132 35
-16 66 -19 195 -19 l154 0 30 -30 c26 -27 30 -36 25 -67 -11 -68 -31 -78 -173
-81 -147 -4 -180 5 -200 55 -14 32 -16 33 -75 33 l-61 0 7 -32 c18 -82 70
-142 144 -167 43 -14 283 -14 335 0 74 20 146 119 146 200 0 77 -53 158 -125
190 -33 15 -67 19 -192 19 -140 0 -155 2 -173 20 -11 11 -20 29 -20 40 0 11 9
29 20 40 18 18 33 20 180 20 l161 0 17 -30 c16 -28 21 -30 75 -30 64 0 68 5
42 68 -19 43 -50 79 -87 98 -37 19 -379 19 -423 0z"/>
<path d="M5922 5479 c-74 -29 -153 -110 -182 -186 -18 -47 -21 -73 -18 -138 6
-98 34 -161 103 -224 70 -64 124 -86 220 -86 136 0 238 63 297 183 29 59 33
76 33 147 0 96 -22 150 -86 220 -65 71 -126 98 -229 102 -68 2 -95 -1 -138
-18z m206 -115 c85 -35 141 -131 128 -217 -21 -132 -151 -214 -273 -173 -112
37 -174 171 -129 279 16 41 71 96 111 113 41 18 118 17 163 -2z"/>
<path d="M6450 5250 c0 -276 3 -292 67 -352 54 -52 86 -58 288 -58 l185 0 0
60 0 60 -181 0 -181 0 -29 29 -29 29 0 241 0 241 -60 0 -60 0 0 -250z"/>
<path d="M7012 5298 c3 -194 4 -205 29 -258 37 -80 81 -125 157 -162 58 -29
76 -33 147 -33 97 0 167 29 233 96 84 85 102 157 102 402 l0 157 -65 0 -65 0
0 -190 c0 -214 -6 -238 -74 -298 -95 -83 -247 -56 -313 56 -28 46 -28 50 -31
240 l-4 192 -60 0 -60 0 4 -202z"/>
<path d="M7770 5440 l0 -60 135 0 135 0 0 -270 0 -270 60 0 60 0 0 270 0 270
135 0 135 0 0 60 0 60 -330 0 -330 0 0 -60z"/>
<path d="M8520 5170 l0 -330 60 0 60 0 0 330 0 330 -60 0 -60 0 0 -330z"/>
<path d="M8927 5485 c-48 -18 -119 -69 -144 -104 -72 -97 -93 -219 -53 -323
28 -75 96 -150 168 -185 49 -24 68 -28 142 -27 63 0 97 6 130 21 67 31 135 96
167 161 24 49 28 69 28 142 0 71 -4 94 -27 142 -31 67 -90 127 -156 159 -59
29 -196 37 -255 14z m191 -121 c198 -82 163 -359 -51 -399 -81 -16 -177 37
-216 118 -81 168 95 353 267 281z"/>
<path d="M9440 5171 l0 -331 60 0 60 0 2 206 3 205 205 -158 c113 -87 233
-180 268 -206 l62 -48 0 330 0 331 -60 0 -60 0 -2 -206 -3 -205 -140 108 c-77
60 -197 153 -267 207 l-128 97 0 -330z"/>
<path d="M10295 5486 c-66 -29 -114 -121 -100 -195 10 -55 51 -110 98 -132 35
-16 66 -19 195 -19 l154 0 29 -29 c36 -37 38 -79 5 -118 -24 -28 -26 -28 -151
-31 -148 -4 -180 5 -201 55 -14 32 -16 33 -75 33 l-61 0 7 -32 c12 -53 42
-105 77 -131 54 -41 101 -49 259 -45 139 3 147 4 187 31 111 73 133 218 49
314 -55 62 -91 73 -260 73 -82 0 -157 4 -167 10 -10 5 -22 24 -25 42 -6 26 -3
35 15 50 19 16 43 18 182 18 l159 0 17 -30 c16 -28 21 -30 75 -30 64 0 68 5
42 68 -19 43 -50 79 -87 98 -37 19 -379 19 -423 0z"/>
<path d="M3755 4360 c-11 -4 -33 -22 -49 -39 -23 -24 -30 -42 -34 -85 -4 -52
-3 -56 36 -98 40 -42 42 -43 107 -43 65 0 67 1 106 42 34 37 39 48 39 90 0 59
-27 105 -77 131 -25 14 -98 15 -128 2z m111 -35 c65 -27 80 -114 29 -169 -45
-49 -139 -40 -174 16 -21 34 -16 96 11 125 41 44 77 52 134 28z"/>
<path d="M4090 4368 c0 -2 -11 -61 -25 -133 -30 -154 -29 -145 -6 -145 16 0
20 13 31 96 7 52 16 92 21 87 4 -4 23 -46 41 -93 19 -47 38 -84 43 -83 5 0 25
39 45 86 39 93 50 112 50 79 0 -12 5 -55 11 -97 10 -63 14 -75 30 -75 23 0 23
-7 -1 126 -25 139 -29 154 -38 154 -4 0 -25 -44 -46 -98 -22 -53 -42 -100 -46
-105 -3 -4 -26 40 -49 98 -24 58 -47 105 -52 105 -5 0 -9 -1 -9 -2z"/>
<path d="M5566 4238 c-31 -158 -31 -148 -7 -148 16 0 20 13 32 95 7 53 16 92
20 88 4 -5 23 -46 41 -93 19 -47 38 -84 44 -83 5 1 25 40 45 87 19 47 38 88
40 91 3 3 11 -38 18 -90 12 -82 16 -95 32 -95 23 0 23 -7 -1 126 -25 139 -29
154 -38 154 -4 0 -25 -44 -46 -98 -22 -53 -42 -100 -45 -104 -3 -4 -26 40 -50
98 -24 57 -47 104 -51 104 -4 0 -19 -60 -34 -132z"/>
<path d="M6764 4361 c-11 -5 -34 -25 -52 -45 -26 -30 -32 -45 -32 -83 0 -85
60 -143 150 -143 136 0 192 173 82 254 -28 22 -114 31 -148 17z m111 -37 c19
-9 40 -30 49 -49 44 -91 -54 -184 -147 -140 -79 37 -81 151 -3 189 40 20 60
20 101 0z"/>
<path d="M7850 4368 c0 -2 -11 -61 -25 -133 -30 -154 -29 -145 -7 -145 16 0
20 15 32 96 7 52 16 92 21 87 4 -4 23 -46 41 -93 19 -47 38 -85 42 -85 5 0 24
38 43 85 38 93 53 116 53 82 0 -11 5 -55 11 -97 10 -63 14 -75 30 -75 11 0 19
3 19 8 0 22 -49 264 -54 269 -8 9 -8 10 -55 -104 -24 -57 -44 -103 -45 -103
-2 0 -22 47 -46 105 -23 58 -46 105 -51 105 -5 0 -9 -1 -9 -2z"/>
<path d="M8590 4233 c0 -121 2 -143 15 -143 12 0 15 18 15 103 l1 102 97 -103
c53 -56 100 -102 105 -102 4 0 7 61 7 135 0 128 -1 135 -20 135 -19 0 -20 -7
-21 -97 l0 -98 -99 105 -100 105 0 -142z"/>
<path d="M3340 4225 c0 -113 2 -135 15 -135 12 0 15 14 15 65 l0 65 75 0 75 0
0 -65 c0 -51 3 -65 15 -65 13 0 15 22 15 135 0 113 -2 135 -15 135 -12 0 -15
-13 -15 -55 l0 -55 -75 0 -75 0 0 55 c0 42 -3 55 -15 55 -13 0 -15 -22 -15
-135z"/>
<path d="M4490 4225 l0 -135 75 0 c60 0 75 3 75 15 0 12 -13 15 -55 15 l-55 0
0 50 0 50 55 0 c42 0 55 3 55 15 0 12 -13 15 -55 15 l-55 0 0 40 0 40 55 0
c42 0 55 3 55 15 0 12 -15 15 -75 15 l-75 0 0 -135z"/>
<path d="M5300 4225 c0 -128 1 -135 20 -135 19 0 20 7 20 135 0 128 -1 135
-20 135 -19 0 -20 -7 -20 -135z"/>
<path d="M6000 4225 c0 -128 1 -135 20 -135 18 0 20 7 20 60 l0 60 39 0 c71 0
108 82 58 128 -18 17 -36 22 -80 22 l-57 0 0 -135z m101 95 c21 -12 25 -50 7
-68 -7 -7 -25 -12 -40 -12 -27 0 -28 2 -28 45 0 39 3 45 21 45 11 0 29 -5 40
-10z"/>
<path d="M6370 4225 c0 -127 1 -135 20 -135 16 0 19 8 22 61 l3 61 44 -61 c33
-45 51 -61 68 -61 22 0 21 3 -22 58 -40 51 -43 57 -25 60 32 5 63 52 56 86
-11 52 -32 66 -103 66 l-63 0 0 -135z m114 89 c35 -35 12 -74 -44 -74 l-35 0
3 45 c4 42 6 45 32 45 16 0 36 -7 44 -16z"/>
<path d="M7080 4358 c0 -14 110 -273 116 -275 11 -3 119 266 111 274 -16 16
-35 -13 -67 -101 -18 -53 -37 -96 -41 -96 -3 0 -22 44 -41 98 -28 78 -39 98
-56 100 -12 2 -22 2 -22 0z"/>
<path d="M7490 4225 l0 -135 75 0 c60 0 75 3 75 15 0 12 -13 15 -55 15 l-55 0
0 50 0 50 55 0 c42 0 55 3 55 15 0 12 -13 15 -55 15 l-55 0 0 40 0 40 55 0
c42 0 55 3 55 15 0 12 -15 15 -75 15 l-75 0 0 -135z"/>
<path d="M8240 4225 l0 -135 80 0 c64 0 80 3 80 15 0 12 -13 15 -60 15 l-60 0
0 50 0 49 57 3 c81 4 85 28 4 28 l-61 0 0 40 0 40 60 0 c47 0 60 3 60 15 0 12
-16 15 -80 15 l-80 0 0 -135z"/>
<path d="M8972 4348 c3 -7 21 -14 41 -16 l37 -3 0 -120 c0 -112 1 -119 20
-119 19 0 20 7 20 120 l0 120 40 0 c29 0 40 4 40 15 0 12 -18 15 -101 15 -76
0 -100 -3 -97 -12z"/>
</g>
</svg>
